<?xml version="1.0" standalone="no"?>
<!DOCTYPE svg PUBLIC "-//W3C//DTD SVG 20010904//EN"
 "http://www.w3.org/TR/2001/REC-SVG-20010904/DTD/svg10.dtd">
<svg version="1.0" xmlns="http://www.w3.org/2000/svg"
 width="218.000000pt" height="218.000000pt" viewBox="0 0 218.000000 218.000000"
 preserveAspectRatio="xMidYMid meet">
<metadata>
Created by potrace 1.11, written by Peter Selinger 2001-2013
</metadata>
<g transform="translate(0.000000,218.000000) scale(0.100000,-0.100000)"
fill="#000000" stroke="none">
<path d="M659 1743 c-240 -241 -450 -456 -467 -479 -87 -114 -142 -276 -147
-434 -4 -120 6 -196 40 -293 86 -249 296 -442 555 -513 89 -24 300 -25 388 -1
60 16 67 16 125 0 86 -24 307 -23 396 1 465 127 721 624 545 1062 -59 147 -75
167 -548 642 l-451 452 -436 -437z m1119 -731 c69 -143 69 -286 -1 -430 -36
-75 -123 -165 -196 -205 -67 -36 -72 -22 -26 71 44 89 73 196 79 286 l4 69
-61 66 c-34 36 -77 82 -97 102 -19 20 -59 61 -88 92 -49 53 -72 68 -72 49 0
-4 10 -35 22 -67 56 -156 8 -370 -121 -537 -58 -75 -109 -97 -169 -72 -37 15
-55 34 -110 114 -106 153 -145 350 -97 480 24 64 29 90 18 90 -9 0 -69 -61
-250 -252 l-62 -65 4 -54 c8 -113 32 -202 82 -306 19 -39 32 -76 29 -82 -17
-26 -157 77 -220 162 -69 94 -101 250 -77 369 28 131 48 157 400 511 l326 328
327 -328 c281 -283 330 -337 356 -391z"/>
</g>
</svg>
